<?xml version="1.0" encoding="utf-8"?>
<!-- Generator: Adobe Illustrator 25.1.0, SVG Export Plug-In . SVG Version: 6.00 Build 0)  -->
<svg version="1.1" id="Layer_1" xmlns="http://www.w3.org/2000/svg" xmlns:xlink="http://www.w3.org/1999/xlink" x="0px" y="0px"
	 viewBox="0 0 141.3 36.8" style="enable-background:new 0 0 141.3 36.8;" xml:space="preserve">
<style type="text/css">
	.st0{fill:#00A79D;}
</style>
<g>
	<path class="st0" d="M15.2,22L9,15.8c-0.4-0.4-0.4-1,0-1.3l1.3-1.3c0.4-0.4,1-0.4,1.3,0l4.1,4.1l15.3-16c0.4-0.4,1-0.4,1.3,0
		l1.3,1.3c0.4,0.4,0.4,1,0,1.3L16.5,22C16.1,22.3,15.5,22.3,15.2,22z"/>
	<path d="M15.2,29L9,22.9c-0.4-0.4-0.4-1,0-1.3l1.3-1.3c0.4-0.4,1-0.4,1.3,0l4.1,4.1l15.3-16c0.4-0.4,1-0.4,1.3,0l1.3,1.3
		c0.4,0.4,0.4,1,0,1.3L16.5,29C16.1,29.4,15.5,29.4,15.2,29z"/>
	<polygon points="27.3,19.5 27.3,31.7 5.1,31.7 5.1,9.5 21.6,9.5 25.6,5.4 1,5.4 1,35.8 31.4,35.8 31.4,15.3 	"/>
	<g>
		<path d="M42.9,27.1V13.8h3.5c1.6,0,2.8,0.5,3.7,1.5c0.9,1,1.4,2.3,1.4,4.1v2.2c0,1.7-0.5,3.1-1.4,4.1c-0.9,1-2.2,1.5-3.8,1.5H42.9
			z M45.6,16.1v8.8h0.8c0.9,0,1.5-0.2,1.9-0.7c0.4-0.5,0.6-1.3,0.6-2.4v-2.3c0-1.2-0.2-2.1-0.5-2.6c-0.3-0.5-0.9-0.7-1.8-0.8H45.6z"
			/>
		<path d="M53,21.9c0-1.5,0.4-2.7,1.1-3.5c0.7-0.9,1.7-1.3,2.9-1.3c1.3,0,2.2,0.4,3,1.3c0.7,0.9,1.1,2,1.1,3.5v0.6
			c0,1.5-0.4,2.7-1.1,3.5c-0.7,0.8-1.7,1.3-2.9,1.3c-1.3,0-2.3-0.4-3-1.3c-0.7-0.9-1.1-2-1.1-3.5V21.9z M55.6,22.5
			c0,1.8,0.5,2.7,1.4,2.7c0.9,0,1.3-0.7,1.4-2.2l0-1.1c0-0.9-0.1-1.6-0.4-2c-0.2-0.4-0.6-0.7-1.1-0.7c-0.4,0-0.8,0.2-1,0.7
			c-0.2,0.4-0.4,1.1-0.4,2V22.5z"/>
		<path d="M67.5,26.2c-0.5,0.7-1.3,1.1-2.2,1.1c-0.9,0-1.6-0.3-2.1-0.9c-0.5-0.6-0.7-1.5-0.7-2.7v-6.4h2.6v6.5c0,1,0.3,1.4,1,1.4
			c0.6,0,1-0.3,1.3-0.8v-7.2H70v9.9h-2.4L67.5,26.2z"/>
		<path d="M79.6,22.5c0,1.6-0.3,2.8-0.8,3.6c-0.5,0.8-1.3,1.2-2.4,1.2c-0.9,0-1.5-0.4-2.1-1.2l-0.1,1h-2.4v-14h2.6v5
			c0.5-0.7,1.1-1,1.9-1c1.1,0,1.9,0.4,2.4,1.2c0.5,0.8,0.8,2,0.8,3.5V22.5z M77,21.8c0-1-0.1-1.7-0.3-2.1s-0.6-0.5-1.1-0.5
			c-0.5,0-0.9,0.2-1.2,0.7v4.5c0.2,0.5,0.6,0.7,1.2,0.7c0.5,0,0.8-0.2,1-0.5c0.2-0.3,0.3-1,0.3-1.9V21.8z"/>
		<path d="M83.9,27.1h-2.6v-14h2.6V27.1z"/>
		<path d="M89.9,27.3c-1.3,0-2.4-0.4-3.1-1.2c-0.7-0.8-1.1-1.9-1.1-3.4v-0.8c0-1.6,0.3-2.8,1-3.6c0.7-0.8,1.7-1.3,2.9-1.3
			c1.2,0,2.2,0.4,2.8,1.2c0.6,0.8,0.9,2,1,3.5V23h-5.1c0,0.7,0.2,1.3,0.5,1.6c0.3,0.3,0.7,0.5,1.3,0.5c0.9,0,1.6-0.3,2.2-0.9l1,1.6
			c-0.3,0.4-0.8,0.8-1.4,1.1C91.2,27.2,90.6,27.3,89.9,27.3z M88.2,21.2h2.6V21c0-0.6-0.1-1-0.3-1.3c-0.2-0.3-0.5-0.5-1-0.5
			c-0.5,0-0.8,0.2-1,0.5C88.4,20,88.3,20.5,88.2,21.2z"/>
		<path d="M104,22.7c-0.1,1.5-0.5,2.7-1.3,3.4s-1.9,1.2-3.3,1.2c-1.5,0-2.7-0.5-3.5-1.5c-0.8-1-1.2-2.4-1.2-4.2v-2.2
			c0-1.8,0.4-3.2,1.2-4.2s2-1.5,3.5-1.5c1.5,0,2.6,0.4,3.3,1.2c0.8,0.8,1.2,2,1.3,3.5h-2.7c0-0.9-0.2-1.6-0.4-1.9s-0.8-0.5-1.5-0.5
			c-0.7,0-1.2,0.3-1.5,0.8c-0.3,0.5-0.5,1.3-0.5,2.5v2.5c0,1.3,0.1,2.2,0.4,2.7s0.8,0.7,1.5,0.7c0.7,0,1.2-0.2,1.5-0.5
			c0.3-0.3,0.4-1,0.5-1.9H104z"/>
		<path d="M108,18.1c0.6-0.7,1.2-1.1,2.1-1.1c0.9,0,1.6,0.3,2.1,1c0.5,0.6,0.7,1.6,0.7,2.8v6.3h-2.6v-6.3c0-0.6-0.1-1-0.3-1.3
			c-0.2-0.3-0.5-0.4-0.9-0.4c-0.5,0-0.8,0.2-1.1,0.6v7.3h-2.6v-14h2.6V18.1z"/>
		<path d="M118.7,27.3c-1.3,0-2.4-0.4-3.1-1.2c-0.7-0.8-1.1-1.9-1.1-3.4v-0.8c0-1.6,0.3-2.8,1-3.6c0.7-0.8,1.7-1.3,2.9-1.3
			c1.2,0,2.2,0.4,2.8,1.2c0.6,0.8,0.9,2,1,3.5V23h-5.1c0,0.7,0.2,1.3,0.5,1.6c0.3,0.3,0.7,0.5,1.3,0.5c0.9,0,1.6-0.3,2.2-0.9l1,1.6
			c-0.3,0.4-0.8,0.8-1.4,1.1C120.1,27.2,119.4,27.3,118.7,27.3z M117.1,21.2h2.6V21c0-0.6-0.1-1-0.3-1.3s-0.5-0.5-1-0.5
			c-0.5,0-0.8,0.2-1,0.5C117.2,20,117.1,20.5,117.1,21.2z"/>
		<path d="M127.3,25.2c0.7,0,1.1-0.5,1.1-1.5h2.4c0,1.1-0.3,2-1,2.6c-0.7,0.7-1.5,1-2.5,1c-1.3,0-2.2-0.4-2.9-1.2
			c-0.7-0.8-1-2-1-3.5v-0.8c0-1.6,0.3-2.7,1-3.6c0.7-0.8,1.6-1.2,2.9-1.2c1.1,0,2,0.3,2.6,1s0.9,1.6,1,2.9h-2.4c0-0.6-0.1-1-0.3-1.3
			c-0.2-0.3-0.5-0.4-0.9-0.4c-0.5,0-0.8,0.2-1,0.5c-0.2,0.3-0.3,0.9-0.3,1.9v1c0,0.8,0,1.4,0.1,1.7c0.1,0.3,0.2,0.6,0.4,0.7
			S126.9,25.2,127.3,25.2z"/>
		<path d="M135.6,23.3l-0.7,0.8v3h-2.6v-14h2.6v7.6l0.3-0.5l1.8-3h3.1l-2.9,4.1l3.1,5.8h-3L135.6,23.3z"/>
	</g>
</g>
</svg>
